<svg width="30" height="30" viewBox="0 0 30 30" fill="none" xmlns="http://www.w3.org/2000/svg">
<path d="M29.9079 1.33008C29.8587 1.43711 29.791 1.53461 29.7079 1.61808L10.7999 20.5221L16.1399 29.4241C16.2345 29.5824 16.3711 29.7115 16.5344 29.797C16.6978 29.8826 16.8817 29.9213 17.0657 29.9089C17.2497 29.8965 17.4267 29.8334 17.5771 29.7267C17.7275 29.6199 17.8455 29.4737 17.9179 29.3041L29.9079 1.33008Z" fill="#005662"/>
<path d="M9.38907 19.11L0.487072 13.766C0.328753 13.6714 0.199678 13.5349 0.114119 13.3715C0.0285608 13.2081 -0.0101489 13.0242 0.00227016 12.8402C0.0146893 12.6562 0.0777534 12.4792 0.18449 12.3288C0.291226 12.1784 0.437477 12.0605 0.607072 11.988L28.5871 0C28.4785 0.0493763 28.3796 0.117788 28.2951 0.202L9.38907 19.11Z" fill="#005662"/>
</svg>
