<svg width="45" height="45" viewBox="0 0 45 45" fill="none" xmlns="http://www.w3.org/2000/svg">
<path d="M22.4648 0.00407647C11.5237 -0.219548 1.31405 8.78715 0.175948 19.6946C-1.02676 28.9193 4.03044 38.6493 12.4673 42.6696C20.434 46.6785 30.7646 45.4712 37.3717 39.3871C44.0439 33.527 46.8316 23.5552 43.7447 15.1566C40.9067 6.8785 32.9689 0.57382 24.1893 0.0695336C23.6155 0.0271447 23.0401 0.00407647 22.4648 0.00407647ZM22.2101 2.43163C32.2428 2.0533 41.6721 10.4312 42.4583 20.4635C43.4238 29.3113 37.8649 38.4774 29.4053 41.3933C21.1819 44.4384 11.0876 41.478 6.121 34.1532C1.02344 27.0026 1.22589 16.4477 7.00984 9.73924C10.7118 5.27381 16.3919 2.45329 22.2101 2.43163ZM22.6085 4.61975C13.3275 4.32405 4.78907 12.4839 4.62141 21.7786C4.21229 30.1777 10.4283 38.4202 18.7321 40.02C26.4261 41.7066 35.023 37.7483 38.4557 30.5815C42.006 23.582 40.4182 14.2673 34.3608 9.15444C31.1512 6.30735 26.9059 4.62447 22.6085 4.61975ZM22.4993 7.00564C30.6808 6.78903 38.1322 14.1623 38.001 22.3637C38.1456 29.9453 32.0522 37.151 24.4507 37.9154C17.3138 38.8539 9.78898 34.2709 7.7371 27.279C5.58633 20.6174 8.41207 12.5939 14.6104 9.16385C16.9868 7.76185 19.7398 7.00117 22.4993 7.00564ZM14.1869 14.717L22.6827 21.619L31.1785 14.717H14.1869ZM12.3018 16.3187V30.2907H32.7128V16.6035C29.3694 19.32 26.0261 22.0362 22.6827 24.7526C19.2307 21.948 15.7539 19.1233 12.3018 16.3187Z" fill="#ACD7DB"/>
</svg>
